<?xml version="1.0" standalone="no"?>
<!DOCTYPE svg PUBLIC "-//W3C//DTD SVG 20010904//EN"
 "http://www.w3.org/TR/2001/REC-SVG-20010904/DTD/svg10.dtd">
<svg version="1.0" xmlns="http://www.w3.org/2000/svg"
 width="2310.000000pt" height="2310.000000pt" viewBox="0 0 2310.000000 2310.000000"
 preserveAspectRatio="xMidYMid meet">
<metadata>
Created by potrace 1.14, written by Peter Selinger 2001-2017
</metadata>
<g transform="translate(0.000000,2310.000000) scale(0.100000,-0.100000)"
fill="#000000" stroke="none">
<path d="M2577 21894 c-1 -1 -72 -4 -157 -8 -85 -3 -166 -8 -180 -10 -14 -2
-52 -7 -85 -11 -251 -28 -462 -90 -680 -200 -127 -64 -313 -179 -361 -223 -10
-10 -35 -28 -54 -41 -39 -27 -277 -264 -328 -326 -60 -74 -160 -230 -205 -320
-70 -141 -108 -260 -133 -420 -11 -75 -2 -17426 10 -17515 56 -423 301 -849
661 -1147 119 -99 108 -90 207 -156 123 -82 322 -179 463 -225 158 -52 231
-67 425 -87 59 -6 18628 -6 18700 0 116 10 168 17 265 35 97 19 229 53 270 69
11 5 58 23 105 41 205 79 388 188 575 340 57 47 230 225 276 285 106 137 205
309 262 455 30 77 73 220 81 274 4 21 8 41 10 45 3 4 8 44 11 89 9 104 10
17301 2 17398 -43 489 -332 940 -822 1285 -134 94 -355 205 -521 262 -103 36
-231 69 -314 83 -14 2 -39 6 -55 9 -17 3 -57 8 -90 11 -47 5 -18332 13 -18338
8z m11878 -8287 c11 -3 45 -8 75 -12 136 -18 283 -85 371 -168 69 -66 138
-184 157 -272 13 -57 20 -1060 8 -1163 -27 -232 -114 -393 -260 -481 -31 -18
-94 -46 -139 -61 -156 -53 -229 -56 -1072 -54 -715 2 -868 5 -920 20 -187 56
-382 241 -446 425 -22 63 -23 70 -24 654 -2 551 -1 595 17 658 28 104 63 164
137 236 88 86 88 86 184 131 103 48 198 74 322 88 66 8 1558 7 1590 -1z m3255
-3 c25 -3 454 -8 955 -11 847 -4 915 -5 990 -23 217 -51 407 -178 453 -303 32
-87 36 -153 37 -650 1 -611 -9 -736 -70 -872 -23 -53 -87 -142 -116 -163 -10
-7 -24 -18 -31 -25 -24 -24 -102 -66 -172 -92 -149 -56 -148 -56 -996 -62
-1535 -10 -1598 -9 -1662 10 -101 31 -214 102 -294 185 -88 90 -139 219 -153
382 -8 98 -6 1083 3 1135 20 123 90 234 205 327 79 63 263 133 406 154 28 4
70 10 95 13 53 8 285 4 350 -5z"/>
</g>
</svg>
