<?xml version="1.0" encoding="utf-8" ?>
<svg xmlns="http://www.w3.org/2000/svg" xmlns:xlink="http://www.w3.org/1999/xlink" width="256" height="256">
	<path fill="#0D3B66" transform="scale(0.5 0.5)" d="M231.214 4.74038L455.223 4.75365C458.805 4.75588 462.531 4.69264 466.07 5.29609C483.754 8.31086 500.591 24.1034 503.202 42.1537C503.964 47.4213 503.653 52.7379 503.638 58.0519L503.615 460.755C503.62 463.392 503.702 466.135 503.311 468.75C500.091 490.274 481.19 506.848 459.386 506.893L280.875 506.882L55.3394 506.944C51.9204 506.947 48.4218 507.031 45.0399 506.466C27.2467 503.489 11.7748 486.842 9.17778 469.144C8.42945 464.044 8.7475 458.7 8.7449 453.548L8.55661 45.8004C8.4894 27.7629 26.6762 9.38978 43.9308 6.05396C53.1489 4.27183 62.5919 4.7651 71.9442 4.75689L231.214 4.74038ZM383.178 206.101C377.637 206.641 371.59 209.791 369.743 215.375L369.591 215.822C368.698 218.508 368.981 221.694 368.973 224.499L368.963 235.823C368.97 245.443 367.674 253.971 378.226 258.812C380.635 259.917 384.499 259.495 387.117 259.501L432.874 259.207C446.824 256.877 446.479 247.648 446.495 236.579C446.505 229.699 446.976 222.405 446.112 215.58C445.408 210.016 437.305 206.327 432.428 206.223L397.923 206.198C394.847 206.175 385.673 205.014 383.178 206.101ZM287.168 205.618C278.227 206.031 270.509 210.715 270.463 220.292L270.488 245.168C270.576 246.909 270.788 248.392 271.516 250L271.712 250.442C273.389 254.135 276.35 256.934 280 258.625L280.267 258.752C281.534 259.324 283.455 259.375 284.834 259.44L317.215 259.548C336.528 258.974 334.027 245.223 334.047 230.842L334.051 222.229C334.05 220.124 334.186 217.68 333.5 215.673L333.329 215.248C329.273 204.334 318.644 205.684 308.965 205.669L287.168 205.618Z"/>
	<path fill="white" transform="scale(0.5 0.5)" d="M315.221 387.959C326.678 387.706 333.796 392.162 333.978 404.35L334.028 420.272C334.022 430.916 332.418 441.78 319.697 441.832L289.704 441.855C287.305 441.751 282.703 442.235 280.589 441.165C269.713 435.663 270.764 428.15 270.754 417.524C270.745 407.243 268.535 394.491 280.229 389.538L280.623 389.375C285.863 387.134 292.94 387.966 298.541 387.96L315.221 387.959Z"/>
	<path fill="white" transform="scale(0.5 0.5)" d="M286.089 295.349L318.625 295.364C326.344 295.287 333.122 299.301 333.821 307.701L333.853 308.125C334.417 314.263 334.031 320.732 334.019 326.908L333.906 335.677C333.855 336.792 333.894 338.211 333.527 339.272L333.346 339.75C330.742 346.733 326.493 349.089 319.706 349.456L287.4 349.275C279.532 349.245 272.438 346.018 271.315 337.126L271.078 335.196C270.57 330.332 270.816 325.287 270.812 320.397C270.803 308.053 270.43 296.941 286.089 295.349Z"/>
	<path fill="white" transform="scale(0.5 0.5)" d="M208.098 387.999L218.779 387.948C227.124 387.939 236.744 391.36 237.441 401.045L237.641 421.605C237.629 429.458 237.468 439.173 227.529 441.672C225.168 442.265 222.079 441.901 219.604 441.902L202.813 441.867C201.358 442.125 199.475 441.907 197.98 441.912L189.723 441.925C187.948 441.923 185.726 442.1 184.072 441.383L183.75 441.236C177.716 438.615 174.269 433.189 174.241 426.554L174.218 408.616C174.22 405.921 173.829 402.405 174.485 399.812C177.081 389.546 185.867 388.023 194.504 388.006L208.098 387.999Z"/>
	<path fill="white" transform="scale(0.5 0.5)" d="M212.479 295.435C222.712 295.359 237.377 295.135 237.665 309.625L237.686 326.075C237.674 335.013 238.891 344.6 227.958 348.401C223.983 349.782 218.976 349.26 214.821 349.261L199.386 349.27C179.991 349.019 174.114 349.678 174.178 326.581L174.215 314.319C174.227 311.576 173.88 308.252 174.79 305.649L174.936 305.25C176.549 300.776 180.628 297.195 185.206 295.985L185.625 295.878C188.691 295.059 192.513 295.45 195.685 295.445L212.479 295.435Z"/>
	<path fill="white" transform="scale(0.5 0.5)" d="M117.072 295.339C125.937 294.627 135.634 295.411 139.458 304.995L139.607 305.375C141.388 309.682 140.28 318.164 140.277 322.923L140.26 332.262C140.254 334.265 140.388 336.45 139.855 338.396L139.755 338.75C136.862 349.932 129.049 349.263 120.409 349.275L99.6875 349.277C88.357 349.297 76.8239 348.803 76.5507 334.01L76.498 317.777C76.4861 296.303 81.235 295.46 99.7022 295.433L117.072 295.339Z"/>
	<path fill="white" transform="scale(0.5 0.5)" d="M89.5017 387.829C91.7322 387.728 94.0532 387.89 96.2916 387.902L121.432 387.916C125.411 387.914 129.411 387.434 132.901 389.746C139.373 394.032 140.203 398.122 140.239 405.098L140.26 424.046C140.243 432.613 137.937 440.677 127.738 441.777C121.851 442.267 115.656 441.881 109.74 441.873L95.7578 441.854C92.7836 441.845 88.924 442.286 86.124 441.194L85.75 441.042C78.4323 438.21 76.5833 431.2 76.5609 424.315L76.5413 405.189C76.5537 396.167 79.0351 389.622 89.5017 387.829Z"/>
	<path fill="white" transform="scale(0.5 0.5)" d="M186.912 205.817L215.892 205.697C239.069 205.866 237.715 214.063 237.661 231.54C237.626 242.673 240.014 257.659 224.202 259.622L198.446 259.542C189.178 259.522 176.534 260.19 173.898 247.838C172.624 241.867 173.241 235.012 173.256 228.88C173.285 217.502 172.537 208.488 186.912 205.817Z"/>
	<path fill="white" transform="scale(0.5 0.5)" d="M90.1119 205.598L109.217 205.676C114.775 205.688 120.668 205.332 126.18 206.042C143.679 208.296 140.264 222.441 140.263 235.545C140.262 246.886 141.595 258.005 126.657 259.451L100.814 259.536C84.1229 259.527 76.4985 259.071 76.4917 240.616L76.4557 219.875C76.4521 218.237 76.3102 216.43 76.8241 214.856L76.9503 214.5C78.8516 208.878 84.4807 206.12 90.1119 205.598Z"/>
	<path fill="white" transform="scale(0.5 0.5)" d="M383.201 295.592L426.691 295.424C429.514 295.425 432.808 295.106 435.533 295.836C449.835 299.67 446.492 317.882 446.496 328.96L446.518 422.262C446.518 424.613 446.85 427.504 446.152 429.75L446.026 430.125C444.184 435.837 439.083 440.981 432.966 441.644L387.326 441.854C379.558 441.821 371.918 438.428 370.471 429.931C370.172 428.174 370.299 426.277 370.295 424.494L370.293 316.078C370.288 313.254 370.117 310.323 370.363 307.516C370.886 301.536 377.714 296.366 383.201 295.592Z"/>
	<path fill="#E98042" transform="scale(0.5 0.5)" d="M76.4848 32.107C79.8361 31.7002 83.7965 32.0735 87.2092 32.0725L425.08 32.1483C432.53 32.1556 445.258 31.389 452.34 33.1084L455.875 34.2512C473.766 41.6467 471.157 58.3881 471.156 73.7942L471.21 145.54C471.222 160.565 473.723 175.16 457.375 183.751C455.688 184.638 453.968 185.119 452.221 185.818L452.006 185.906C447.371 187.665 439.679 186.943 434.803 186.936L79.5373 186.924C74.6809 186.917 69.6976 187.15 64.8732 186.531C47.1515 184.255 40.4298 171.169 40.4003 155.135L40.381 64.4742C40.4213 38.4947 51.3505 31.8213 76.4848 32.107Z"/>
	<path fill="white" transform="scale(0.5 0.5)" d="M96.1785 60.3527C99.1606 60.1566 102.223 60.298 105.212 60.2985L410.571 60.2924C414.234 60.2909 422.45 59.4974 425.759 61.0059L428.25 61.9794C441.833 67.8217 442.733 78.4907 442.751 91.2756L442.82 123.21C442.859 126.16 443.153 129.408 442.401 132.283L442.044 133.633C439.139 143.835 431.294 149.21 421.221 150.474L105.543 150.424C101.654 150.429 97.6515 150.65 93.7819 150.322C84.0059 149.493 75.4437 139.771 74.3319 130.351C73.9709 127.292 74.1536 124.083 74.1475 121L74.1202 89.25C74.1225 86.2972 73.8914 83.0415 74.3784 80.1302C76.2121 69.1663 85.1603 61.44 96.1785 60.3527Z"/>
</svg>
